<svg width="100%" height="100%" viewBox="0 0 32 32" version="1.1" xmlns="http://www.w3.org/2000/svg"><rect x="7" y="10" width="18" height="18" style="fill:#392626;stroke:#3a2727;stroke-width:0.14px;"/><g><path d="M14.734,12c0,0 0.082,0.103 0.202,0.299c0.119,0.196 0.269,0.484 0.376,0.85c0.098,0.335 0.156,0.726 0.122,1.127c-0.027,0.351 -0.121,0.705 -0.266,1.069c-0.132,0.33 -0.31,0.649 -0.521,0.971c-0.201,0.306 -0.434,0.605 -0.689,0.923c-0.261,0.327 -0.509,0.615 -0.8,0.974c-0.207,0.256 -0.418,0.523 -0.624,0.809c-0.072,0.1 -0.144,0.203 -0.216,0.309c-0.275,0.404 -0.538,0.851 -0.769,1.339c-0.236,0.497 -0.423,1.03 -0.545,1.586c-0.128,0.579 -0.168,1.173 -0.116,1.752c0.05,0.525 0.18,1.006 0.359,1.432c0.2,0.476 0.46,0.877 0.738,1.204c0.339,0.399 0.701,0.68 1.017,0.875c0.345,0.212 0.65,0.33 0.85,0.395c0.204,0.066 0.318,0.086 0.318,0.086l3.302,-0.01c0,0 0.196,0.03 0.552,-0.015c0.348,-0.044 0.888,-0.176 1.45,-0.566c0.547,-0.381 1.105,-1.002 1.411,-1.887c0.156,-0.458 0.241,-0.945 0.248,-1.434c0.008,-0.469 -0.04,-0.93 -0.137,-1.366c-0.093,-0.428 -0.22,-0.825 -0.365,-1.184c-0.037,-0.094 -0.076,-0.186 -0.115,-0.275c-0.112,-0.253 -0.231,-0.49 -0.35,-0.713c-0.159,-0.3 -0.322,-0.577 -0.467,-0.835c-0.15,-0.267 -0.288,-0.509 -0.404,-0.752c-0.123,-0.253 -0.226,-0.5 -0.296,-0.752c-0.078,-0.277 -0.122,-0.544 -0.116,-0.807c0.002,-0.301 0.079,-0.596 0.184,-0.846c0.116,-0.274 0.26,-0.486 0.374,-0.63c0.114,-0.143 0.19,-0.218 0.19,-0.218c0,0 -0.104,-0.008 -0.299,0.013c-0.19,0.021 -0.488,0.078 -0.829,0.24c-0.313,0.149 -0.679,0.395 -1.002,0.787c-0.111,0.135 -0.216,0.285 -0.311,0.446c0.121,-0.54 0.165,-1.082 0.137,-1.604c-0.032,-0.617 -0.182,-1.185 -0.406,-1.668c-0.26,-0.556 -0.611,-0.961 -0.934,-1.239c-0.35,-0.304 -0.683,-0.472 -0.902,-0.564c-0.224,-0.093 -0.351,-0.121 -0.351,-0.121Z" style="fill:#ff7400;"/><path d="M17.472,27.99l-3.302,0.01c0,0 -0.077,-0.088 -0.198,-0.255c-0.12,-0.166 -0.283,-0.413 -0.432,-0.73c-0.137,-0.29 -0.26,-0.634 -0.329,-1.015c-0.057,-0.311 -0.078,-0.64 -0.054,-0.976c0.022,-0.3 0.079,-0.599 0.173,-0.881c0.068,-0.212 0.158,-0.421 0.265,-0.632c0.007,0.019 0.015,0.038 0.023,0.057c0.119,0.284 0.274,0.523 0.44,0.718c0.202,0.238 0.418,0.406 0.606,0.522c0.206,0.127 0.388,0.197 0.507,0.235c0.122,0.04 0.19,0.052 0.19,0.052c0,0 -0.045,-0.053 -0.118,-0.152c-0.071,-0.099 -0.169,-0.247 -0.258,-0.436c-0.081,-0.173 -0.155,-0.378 -0.196,-0.605c-0.034,-0.185 -0.046,-0.382 -0.032,-0.582c0.013,-0.179 0.047,-0.357 0.103,-0.526c0.06,-0.187 0.151,-0.372 0.257,-0.561c0.104,-0.184 0.228,-0.365 0.363,-0.554c0.134,-0.187 0.283,-0.379 0.435,-0.585c0.039,-0.054 0.08,-0.109 0.12,-0.164c0.113,-0.158 0.23,-0.327 0.345,-0.507c0.093,-0.144 0.184,-0.296 0.271,-0.455c0.023,0.259 0.061,0.514 0.114,0.762c0.087,0.416 0.203,0.807 0.334,1.166c0.095,0.266 0.196,0.514 0.298,0.744c0.036,0.081 0.072,0.16 0.108,0.238c0.137,0.298 0.276,0.569 0.4,0.826c0.124,0.258 0.241,0.499 0.335,0.736c0.097,0.244 0.18,0.475 0.229,0.706c0.101,0.446 0.072,0.937 -0.06,1.378c-0.137,0.457 -0.375,0.827 -0.58,1.082c-0.204,0.254 -0.357,0.384 -0.357,0.384Z" style="fill:#ffd500;"/></g><rect x="3" y="10" width="4" height="3" style="fill:#d22424;stroke:#7d2020;stroke-width:0.14px;"/><rect x="25" y="10" width="4" height="3" style="fill:#d22424;stroke:#7d2020;stroke-width:0.14px;"/><rect x="3" y="16" width="4" height="3" style="fill:#d22424;stroke:#7d2020;stroke-width:0.14px;"/><rect x="25" y="16" width="4" height="3" style="fill:#d22424;stroke:#7d2020;stroke-width:0.14px;"/><rect x="3" y="22" width="4" height="3" style="fill:#d22424;stroke:#7d2020;stroke-width:0.14px;"/><rect x="25" y="22" width="4" height="3" style="fill:#d22424;stroke:#7d2020;stroke-width:0.14px;"/><rect x="5" y="13" width="2" height="3" style="fill:#db2e2e;stroke:#7d2020;stroke-width:0.14px;"/><rect x="25" y="13" width="2" height="3" style="fill:#db2e2e;stroke:#7d2020;stroke-width:0.14px;"/><rect x="5" y="19" width="2" height="3" style="fill:#db2e2e;stroke:#7d2020;stroke-width:0.14px;"/><rect x="25" y="19" width="2" height="3" style="fill:#db2e2e;stroke:#7d2020;stroke-width:0.14px;"/><rect x="1" y="7" width="5" height="3" style="fill:#b62020;stroke:#7d2020;stroke-width:0.14px;"/><rect x="6" y="7" width="5" height="3" style="fill:#c32222;stroke:#7d2020;stroke-width:0.14px;"/><rect x="11" y="7" width="5" height="3" style="fill:#b62020;stroke:#7d2020;stroke-width:0.14px;"/><rect x="16" y="7" width="5" height="3" style="fill:#d12424;stroke:#7d2020;stroke-width:0.14px;"/><rect x="21" y="7" width="5" height="3" style="fill:#c32222;stroke:#7d2020;stroke-width:0.14px;"/><rect x="26" y="7" width="5" height="3" style="fill:#b62020;stroke:#7d2020;stroke-width:0.14px;"/><rect x="1" y="10" width="2" height="3" style="fill:#b62020;stroke:#7d2020;stroke-width:0.14px;"/><rect x="29" y="10" width="2" height="3" style="fill:#b62020;stroke:#7d2020;stroke-width:0.14px;"/><rect x="1" y="16" width="2" height="3" style="fill:#b62020;stroke:#7d2020;stroke-width:0.14px;"/><rect x="29" y="16" width="2" height="3" style="fill:#b62020;stroke:#7d2020;stroke-width:0.14px;"/><rect x="1" y="22" width="2" height="3" style="fill:#b62020;stroke:#7d2020;stroke-width:0.14px;"/><rect x="29" y="22" width="2" height="3" style="fill:#b62020;stroke:#7d2020;stroke-width:0.14px;"/><rect x="1" y="13" width="4" height="3" style="fill:#c32222;stroke:#7d2020;stroke-width:0.14px;"/><rect x="27" y="13" width="4" height="3" style="fill:#c32222;stroke:#7d2020;stroke-width:0.14px;"/><rect x="1" y="19" width="4" height="3" style="fill:#c32222;stroke:#7d2020;stroke-width:0.14px;"/><rect x="27" y="19" width="4" height="3" style="fill:#c32222;stroke:#7d2020;stroke-width:0.14px;"/><rect x="0.07" y="4" width="31.86" height="3" style="fill:#757575;stroke:#4f4f4f;stroke-width:0.14px;"/><rect x="24" y="25" width="7.93" height="3" style="fill:#757575;stroke:#4f4f4f;stroke-width:0.14px;"/><rect x="0.07" y="25" width="7.93" height="3" style="fill:#757575;stroke:#4f4f4f;stroke-width:0.14px;"/></svg>